grf
version=1
nRows=12
nColumns=37
inDegrees=no
endheader
time	ground_force_1_vx	ground_force_1_vy	ground_force_1_vz	ground_force_1_px	ground_force_1_py	ground_force_1_pz	ground_moment_1_mx	ground_moment_1_my	ground_moment_1_mz	ground_force_2_vx	ground_force_2_vy	ground_force_2_vz	ground_force_2_px	ground_force_2_py	ground_force_2_pz	ground_moment_2_mx	ground_moment_2_my	ground_moment_2_mz	ground_force_3_vx	ground_force_3_vy	ground_force_3_vz	ground_force_3_px	ground_force_3_py	ground_force_3_pz	ground_moment_3_mx	ground_moment_3_my	ground_moment_3_mz	ground_force_4_vx	ground_force_4_vy	ground_force_4_vz	ground_force_4_px	ground_force_4_py	ground_force_4_pz	ground_moment_4_mx	ground_moment_4_my	ground_moment_4_mz
      2.75000000	      0.00000000	     -0.00000000	      0.00000000	      0.00000000	      0.00000000	      0.00000000	      0.00000000	      0.00000000	      0.00000000	     -6.20181894	     55.04645920	   -352.98330688	   -300.79638807	  -1114.85646308	      0.00000000	      0.00000000	      0.00000000	   6459.05374609	     20.09124479	    -53.51947579	   -402.23641968	   -338.34594619	   -710.25670499	      0.00000000	      0.00000000	     -0.00000000	  -4448.10827415	      0.00000000	     -0.00000000	      0.00000000	      0.00000000	      0.00000000	      0.00000000	      0.00000000	      0.00000000	      0.00000000
      2.76000000	      0.00000000	     -0.00000000	      0.00000000	      0.00000000	      0.00000000	      0.00000000	      0.00000000	      0.00000000	      0.00000000	     -5.34616375	     54.54457855	   -353.35012817	   -301.14078690	  -1114.08097688	      0.00000000	      0.00000000	      0.00000000	   6679.10608220	     19.65445042	    -54.45864659	   -403.46444702	   -338.21351645	   -709.41291742	      0.00000000	      0.00000000	     -0.00000000	  -4774.50527826	      0.00000000	     -0.00000000	      0.00000000	      0.00000000	      0.00000000	      0.00000000	      0.00000000	      0.00000000	      0.00000000
      2.77000000	      0.00000000	     -0.00000000	      0.00000000	      0.00000000	      0.00000000	      0.00000000	      0.00000000	      0.00000000	      0.00000000	     -5.26959896	     55.30078506	   -354.73867798	   -301.71634100	  -1115.04444258	      0.00000000	      0.00000000	      0.00000000	   6912.02384483	     19.25343600	    -55.55434586	   -406.06335449	   -337.82007156	   -708.80386181	      0.00000000	     -0.00000000	     -0.00000000	  -4978.20392199	      0.00000000	     -0.00000000	      0.00000000	      0.00000000	      0.00000000	      0.00000000	      0.00000000	      0.00000000	      0.00000000
      2.78000000	      0.00000000	     -0.00000000	      0.00000000	      0.00000000	      0.00000000	      0.00000000	      0.00000000	      0.00000000	      0.00000000	     -6.19865847	     55.84460831	   -356.56430054	   -302.59069151	  -1114.05610447	      0.00000000	      0.00000000	      0.00000000	   7097.23679071	     19.11564145	    -56.17259383	   -406.93020630	   -338.24525118	   -710.86133782	      0.00000000	      0.00000000	     -0.00000000	  -5167.47943377	      0.00000000	     -0.00000000	      0.00000000	      0.00000000	      0.00000000	      0.00000000	      0.00000000	      0.00000000	      0.00000000
      2.79000000	      0.00000000	     -0.00000000	      0.00000000	      0.00000000	      0.00000000	      0.00000000	      0.00000000	      0.00000000	      0.00000000	     -6.64478302	     57.44594574	   -360.98318481	   -303.69454556	  -1113.81359274	      0.00000000	      0.00000000	      0.00000000	   7370.22546794	     19.92576107	    -56.30942710	   -409.42041016	   -338.53417152	   -710.27013365	      0.00000000	     -0.00000000	     -0.00000000	  -5320.65333596	      0.00000000	     -0.00000000	      0.00000000	      0.00000000	      0.00000000	      0.00000000	      0.00000000	      0.00000000	      0.00000000
      2.80000000	      0.00000000	     -0.00000000	      0.00000000	      0.00000000	      0.00000000	      0.00000000	      0.00000000	      0.00000000	      0.00000000	     -5.53370619	     58.37245560	   -364.99569702	   -303.78907105	  -1114.98176382	      0.00000000	      0.00000000	      0.00000000	   7573.43723721	     21.37929423	    -56.48585697	   -410.59143066	   -338.44740583	   -710.50289520	      0.00000000	      0.00000000	     -0.00000000	  -5471.40910643	      0.00000000	     -0.00000000	      0.00000000	      0.00000000	      0.00000000	      0.00000000	      0.00000000	      0.00000000	      0.00000000
      2.81000000	      0.00000000	     -0.00000000	      0.00000000	      0.00000000	      0.00000000	      0.00000000	      0.00000000	      0.00000000	      0.00000000	     -4.59057665	     60.20884323	   -367.34686279	   -304.96889432	  -1114.74457960	      0.00000000	      0.00000000	      0.00000000	   7801.61690365	     22.88737756	    -56.61681566	   -412.50714111	   -338.62554484	   -709.62968757	      0.00000000	      0.00000000	     -0.00000000	  -5815.16126885	      0.00000000	     -0.00000000	      0.00000000	      0.00000000	      0.00000000	      0.00000000	      0.00000000	      0.00000000	      0.00000000
      2.82000000	      0.00000000	     -0.00000000	      0.00000000	      0.00000000	      0.00000000	      0.00000000	      0.00000000	      0.00000000	      0.00000000	     -3.92526245	     60.66151428	   -369.79815674	   -306.42118330	  -1114.11236879	      0.00000000	      0.00000000	      0.00000000	   8035.05343785	     23.69321903	    -56.29890268	   -407.96902466	   -338.89181729	   -710.87180489	      0.00000000	      0.00000000	     -0.00000000	  -5729.46872588	      0.00000000	     -0.00000000	      0.00000000	      0.00000000	      0.00000000	      0.00000000	      0.00000000	      0.00000000	      0.00000000
      2.83000000	      0.00000000	     -0.00000000	      0.00000000	      0.00000000	      0.00000000	      0.00000000	      0.00000000	      0.00000000	      0.00000000	     -2.98744202	     60.60867310	   -369.74426270	   -306.91018358	  -1113.53485488	      0.00000000	      0.00000000	      0.00000000	   8051.22694772	     25.15066992	    -55.99828177	   -408.31903076	   -338.22176559	   -708.90766866	      0.00000000	      0.00000000	     -0.00000000	  -5964.96711243	      0.00000000	     -0.00000000	      0.00000000	      0.00000000	      0.00000000	      0.00000000	      0.00000000	      0.00000000	      0.00000000
      2.84000000	      0.00000000	     -0.00000000	      0.00000000	      0.00000000	      0.00000000	      0.00000000	      0.00000000	      0.00000000	      0.00000000	     -1.33608127	     59.22819138	   -369.04837036	   -306.74770753	  -1115.04090275	      0.00000000	      0.00000000	      0.00000000	   8248.42767505	     24.57507595	    -56.26310182	   -410.24450684	   -337.91505460	   -708.78295976	      0.00000000	     -0.00000000	     -0.00000000	  -6176.58093344	      0.00000000	     -0.00000000	      0.00000000	      0.00000000	      0.00000000	      0.00000000	      0.00000000	      0.00000000	      0.00000000
      2.85000000	      0.00000000	     -0.00000000	      0.00000000	      0.00000000	      0.00000000	      0.00000000	      0.00000000	      0.00000000	      0.00000000	     -0.30933815	     58.82220459	   -366.96160889	   -307.25040188	  -1114.59890817	      0.00000000	      0.00000000	      0.00000000	   8400.39678510	     24.08804972	    -56.43551846	   -409.71731567	   -337.52770019	   -710.41525510	      0.00000000	      0.00000000	      0.00000000	  -6533.64861866	      0.00000000	     -0.00000000	      0.00000000	      0.00000000	      0.00000000	      0.00000000	      0.00000000	      0.00000000	      0.00000000
      2.86000000	      0.00000000	     -0.00000000	      0.00000000	      0.00000000	      0.00000000	      0.00000000	      0.00000000	      0.00000000	      0.00000000	     -0.26763153	     59.13713074	   -367.84045410	   -307.31625643	  -1114.95200954	      0.00000000	      0.00000000	      0.00000000	   8518.12134055	     24.39736634	    -56.70063232	   -412.34808350	   -337.03507303	   -709.51938001	      0.00000000	      0.00000000	     -0.00000000	  -6752.21506716	      0.00000000	     -0.00000000	      0.00000000	      0.00000000	      0.00000000	      0.00000000	      0.00000000	      0.00000000	      0.00000000
